C:\dev\predsim\predsim_tutorial\Results\Case_0\GRF.mot
version=1
nRows=25
nColumns=19
inDegrees=yes
endheader 
time	r_ground_force_vx	r_ground_force_vy	r_ground_force_vz	r_ground_force_px	r_ground_force_py	r_ground_force_pz	l_ground_force_vx	l_ground_force_vy	l_ground_force_vz	l_ground_force_px	l_ground_force_py	l_ground_force_pz	r_ground_torque_x	r_ground_torque_y	r_ground_torque_z	l_ground_torque_x	l_ground_torque_y	l_ground_torque_z	
          0.00000000	        -63.78378985	         64.00207632	         70.93567837	          0.21199894	          0.00000000	          0.07893108	        111.47182790	        460.18235400	         27.14669194	         -0.30430071	          0.00000000	         -0.10279336	          0.00000000	         -0.00003033	          0.00000000	          0.00000000	         -2.99773531	          0.00000000	
          0.04373375	        -46.21886792	        407.94062787	         13.59838161	          0.23094177	          0.00000000	          0.06232777	         77.48437929	        275.40585153	         -4.74385281	         -0.28804936	          0.00000000	         -0.10386533	          0.00000000	         -0.12420931	          0.00000000	          0.00000000	         -0.92344599	          0.00000000	
          0.08746751	       -100.15015181	        692.44122885	        -15.12455310	          0.25559340	          0.00000000	          0.06679823	         10.44043879	         70.58717011	        -15.11160548	         -0.28275049	          0.00000000	         -0.09562819	          0.00000000	          3.67584227	          0.00000000	          0.00000000	         -0.01186140	          0.00000000	
          0.13120126	        -60.41484478	        632.60860513	        -18.15720794	          0.27184180	          0.00000000	          0.06730115	          0.00000000	          0.00000000	          0.00000000	          0.00000000	          0.00000000	          0.00000000	          0.00000000	         -2.34305897	          0.00000000	          0.00000000	          0.00000000	          0.00000000	
          0.17493501	        -37.33686702	        566.06354626	        -33.89576914	          0.28365351	          0.00000000	          0.06865988	          0.00000000	          0.00000000	          0.00000000	          0.00000000	          0.00000000	          0.00000000	          0.00000000	         -5.55627895	          0.00000000	          0.00000000	          0.00000000	          0.00000000	
          0.21866877	        -16.72844076	        519.34846256	        -31.18531767	          0.28891883	          0.00000000	          0.07027507	          0.00000000	          0.00000000	          0.00000000	          0.00000000	          0.00000000	          0.00000000	          0.00000000	         -3.22435196	          0.00000000	          0.00000000	          0.00000000	          0.00000000	
          0.26240252	          5.91778953	        483.21039250	        -31.14521014	          0.29262771	          0.00000000	          0.07243526	          0.00000000	          0.00000000	          0.00000000	          0.00000000	          0.00000000	          0.00000000	          0.00000000	          1.10517489	          0.00000000	          0.00000000	          0.00000000	          0.00000000	
          0.30613627	         11.73255178	        485.68824426	        -33.30123823	          0.30058269	          0.00000000	          0.07619315	          0.00000000	          0.00000000	          0.00000000	          0.00000000	          0.00000000	          0.00000000	          0.00000000	          5.74211557	          0.00000000	          0.00000000	          0.00000000	          0.00000000	
          0.34987003	         26.82597671	        527.29830625	        -36.46323246	          0.31257761	          0.00000000	          0.08203259	          0.00000000	          0.00000000	          0.00000000	          0.00000000	          0.00000000	          0.00000000	          0.00000000	          9.34621715	          0.00000000	          0.00000000	          0.00000000	          0.00000000	
          0.39360378	         55.16555883	        605.35986984	        -44.88625221	          0.32925269	          0.00000000	          0.09128717	          0.00000000	          0.00000000	          0.00000000	          0.00000000	          0.00000000	          0.00000000	          0.00000000	         11.73304534	          0.00000000	          0.00000000	          0.00000000	          0.00000000	
          0.43733754	         43.70170420	        610.09269413	        -48.04199980	          0.35462742	          0.00000000	          0.10541147	          0.00000000	          0.00000000	          0.00000000	          0.00000000	          0.00000000	          0.00000000	          0.00000000	         15.12442944	          0.00000000	          0.00000000	          0.00000000	          0.00000000	
          0.48107129	         37.64240890	        544.65192558	        -54.43898755	          0.38511636	          0.00000000	          0.11839917	          0.00000000	          0.00000000	          0.00000000	          0.00000000	          0.00000000	          0.00000000	          0.00000000	         13.56577405	          0.00000000	          0.00000000	          0.00000000	          0.00000000	
          0.52480504	         56.33851597	        503.69839723	        -44.56776502	          0.40570152	          0.00000000	          0.11987272	          0.00000000	          0.00000000	          0.00000000	          0.00000000	          0.00000000	          0.00000000	          0.00000000	          9.77830511	          0.00000000	          0.00000000	          0.00000000	          0.00000000	
          0.56853880	         69.55097074	        387.13667418	        -38.98241392	          0.42277981	          0.00000000	          0.12340558	        -29.36551598	        337.44770896	         68.33904488	          0.93160046	          0.00000000	         -0.07806356	          0.00000000	          5.36160655	          0.00000000	          0.00000000	          0.00334553	          0.00000000	
          0.61227255	         32.54937844	        156.67660619	        -36.64060332	          0.45048983	          0.00000000	          0.14745892	       -173.36101762	        811.25571927	         55.47826643	          0.97463628	          0.00000000	         -0.07852771	          0.00000000	         -0.01544010	          0.00000000	          0.00000000	          7.79550931	          0.00000000	
          0.65600630	          0.00000000	          0.00000000	          0.00000000	          0.00000000	          0.00000000	          0.00000000	        -99.43384422	        690.26544230	         49.13146017	          0.99046296	          0.00000000	         -0.07757730	          0.00000000	          0.00000000	          0.00000000	          0.00000000	         15.67721504	          0.00000000	
          0.69974006	          0.00000000	          0.00000000	          0.00000000	          0.00000000	          0.00000000	          0.00000000	        -42.25642841	        576.11129461	         44.19407198	          1.00819568	          0.00000000	         -0.07698823	          0.00000000	          0.00000000	          0.00000000	          0.00000000	         18.41794206	          0.00000000	
          0.74347381	          0.00000000	          0.00000000	          0.00000000	          0.00000000	          0.00000000	          0.00000000	        -15.01539012	        509.67138399	         35.10128652	          1.03457894	          0.00000000	         -0.07635725	          0.00000000	          0.00000000	          0.00000000	          0.00000000	         16.00591320	          0.00000000	
          0.78720756	          0.00000000	          0.00000000	          0.00000000	          0.00000000	          0.00000000	          0.00000000	         -6.22892856	        494.27290494	         27.00008610	          1.06313270	          0.00000000	         -0.07654070	          0.00000000	          0.00000000	          0.00000000	          0.00000000	         10.32149006	          0.00000000	
          0.83094132	          0.00000000	          0.00000000	          0.00000000	          0.00000000	          0.00000000	          0.00000000	          1.35867799	        486.29175095	         14.10971120	          1.08874713	          0.00000000	         -0.07781472	          0.00000000	          0.00000000	          0.00000000	          0.00000000	          4.48096445	          0.00000000	
          0.87467507	          0.00000000	          0.00000000	          0.00000000	          0.00000000	          0.00000000	          0.00000000	          5.51895758	        475.81454604	          0.07898577	          1.10517359	          0.00000000	         -0.07789723	          0.00000000	          0.00000000	          0.00000000	          0.00000000	          1.18435475	          0.00000000	
          0.91840882	          0.00000000	          0.00000000	          0.00000000	          0.00000000	          0.00000000	          0.00000000	         10.71141394	        490.89832695	         -5.22673691	          1.11076009	          0.00000000	         -0.07940505	          0.00000000	          0.00000000	          0.00000000	          0.00000000	         -0.22267056	          0.00000000	
          0.96214258	          0.00000000	          0.00000000	          0.00000000	          0.00000000	          0.00000000	          0.00000000	         28.36982617	        602.65592203	         -3.10742635	          1.11267804	          0.00000000	         -0.08378178	          0.00000000	          0.00000000	          0.00000000	          0.00000000	         -0.49608065	          0.00000000	
          1.00587633	          0.00000000	          0.00000000	          0.00000000	          0.00000000	          0.00000000	          0.00000000	         78.28498195	        726.58870889	         22.26959761	          1.11650788	          0.00000000	         -0.08996957	          0.00000000	          0.00000000	          0.00000000	          0.00000000	         -1.01235218	          0.00000000	
          1.04961008	          0.00000000	          0.00000000	          0.00000000	          0.00000000	          0.00000000	          0.00000000	        124.97776918	        670.82848342	         37.70525764	          1.12773719	          0.00000000	         -0.09627240	          0.00000000	          0.00000000	          0.00000000	          0.00000000	         -2.35633746	          0.00000000	
